<svg xmlns="http://www.w3.org/2000/svg" viewBox="0 0 151.42 91.91"><defs><style>.cls-1{fill:#223f9a;}</style></defs><g id="Layer_2"><g id="Layer_1-2"><polygon class="cls-1" points="48.49 91.91 23.31 66.73 31.46 58.58 52.57 79.69 71.2 61.05 79.37 61.08 97.76 79.65 119.97 57.25 128.15 65.36 101.85 91.89 93.66 91.89 75.25 73.3 56.64 91.91 48.49 91.91"/><polygon class="cls-1" points="98.12 35.07 75.27 12.22 52.42 35.07 44.28 26.92 71.2 0 79.35 0 106.27 26.92 98.12 35.07"/><polygon class="cls-1" points="8.39 67.46 0 59.56 27.35 30.4 35.77 30.4 52.73 48.87 71.2 30.4 79.37 30.4 97.74 48.97 115.9 30.4 124.22 30.4 151.42 59.57 143.01 67.45 119.92 42.8 101.87 61.26 93.66 61.26 75.25 42.64 56.64 61.26 48.34 61.26 31.51 42.92 8.39 67.46"/></g></g></svg>