<svg xmlns="http://www.w3.org/2000/svg" viewBox="0 0 449.62 92.69"><defs><style>.cls-1{fill:#181721;}.cls-2{fill:#223f9a;}.cls-3{fill:#00b6dc;}.cls-4{fill:#1a6fb7;}</style></defs><g id="Layer_2" data-name="Layer 2"><g id="Layer_1-2" data-name="Layer 1"><path class="cls-1" d="M387.58,74.41l-.33.26a27.41,27.41,0,0,1-7.46,4.13,30.54,30.54,0,0,1-10.62,2A29,29,0,0,1,361,79.57c-5.7-1.69-9.61-5.6-11.63-11.61a34.21,34.21,0,0,1-1.43-10.84V29H335.1V18.69h12.83V0h11.26V18.69h25.07V29H359.2c0,3.22,0,21.89,0,28.33a20.69,20.69,0,0,0,.5,4.84c1.28,5.39,5.1,8.21,10.74,8a22,22,0,0,0,10.36-3.24l.85-.51.89-.53Z"/><path class="cls-1" d="M326.59,18.68H315.34v7.09a25.51,25.51,0,0,0-16.88-8.22c-12.08-1.13-21.61,3.07-28.32,12.5-4.59,6.45-6.39,14-5.48,23.09a29.94,29.94,0,0,0,25.18,27.05,35.42,35.42,0,0,0,5.53.45,27,27,0,0,0,16.56-5.41,34.27,34.27,0,0,0,2.87-2.49l.58-.56v7.11h11.21Zm-19.43,48A20.77,20.77,0,0,1,288,68.42c-6.17-2.6-10.28-8-11.6-15.23a22,22,0,0,1,4-17.79,19.33,19.33,0,0,1,15.56-7.47,21.09,21.09,0,0,1,5.43.71c8.32,2.22,14.06,9.48,14.61,18.5,0,.41,0,.82,0,1.26V49C315.78,57,312.91,62.81,307.16,66.69Z"/><path class="cls-1" d="M263.75,18.59,241.89,79.36H229.05L212.22,31.65,195.39,79.36H182.54L160.68,18.59l11.74,0,16.75,47.91,16.67-47.59.11-.32h12.54l.11.32,16.67,47.59L252,18.56Z"/><path class="cls-1" d="M438.4,18.69v7.1a25.88,25.88,0,0,0-16.84-8.25,30.31,30.31,0,0,0-21.25,5.25,30.78,30.78,0,0,0-12.54,21.36,33.57,33.57,0,0,0,5.16,23.35c6,8.69,14.33,13.08,24.9,13.08,1,0,2,0,3.1-.12a25.47,25.47,0,0,0,17.54-8.39V79.3h11.15V18.69Zm-27,49.87c-5.82-2.32-9.94-7.21-11.61-13.75a22.36,22.36,0,0,1,1.77-16.43C405.18,31.49,411,28,418.9,28c.55,0,1.11,0,1.67.05,9.46.56,16.75,7.38,18.16,17,.13.92.22,1.85.29,2.68,0,.35.06.68.09,1-.32,8.65-3.29,14.47-9.36,18.3A20.65,20.65,0,0,1,411.36,68.56Z"/><polygon class="cls-2" points="48.49 92.69 23.31 67.51 31.46 59.36 52.57 80.47 71.2 61.84 79.37 61.86 97.76 80.43 119.97 58.03 128.15 66.14 101.85 92.67 93.66 92.67 75.25 74.08 56.64 92.69 48.49 92.69"/><polygon class="cls-3" points="98.12 35.85 75.27 13 52.42 35.85 44.28 27.7 71.2 0.78 79.35 0.78 106.27 27.7 98.12 35.85"/><polygon class="cls-4" points="8.39 68.24 0 60.34 27.35 31.18 35.77 31.18 52.73 49.66 71.2 31.18 79.37 31.18 97.74 49.75 115.9 31.18 124.22 31.18 151.42 60.35 143.01 68.23 119.92 43.58 101.87 62.04 93.66 62.04 75.25 43.42 56.64 62.04 48.34 62.04 31.51 43.7 8.39 68.24"/></g></g></svg>